<?xml version="1.0" standalone="no"?>
<!DOCTYPE svg PUBLIC "-//W3C//DTD SVG 20010904//EN"
 "http://www.w3.org/TR/2001/REC-SVG-20010904/DTD/svg10.dtd">
<svg version="1.0" xmlns="http://www.w3.org/2000/svg"
 width="356.000000pt" height="356.000000pt" viewBox="0 0 356.000000 356.000000"
 preserveAspectRatio="xMidYMid meet">
<metadata>
Created by potrace 1.14, written by Peter Selinger 2001-2017
</metadata>
<g transform="translate(0.000000,356.000000) scale(0.100000,-0.100000)"
fill="#000000" stroke="none">
<path d="M644 3046 c-18 -13 -19 -30 -22 -220 l-3 -206 -159 0 c-153 0 -159
-1 -174 -22 -14 -20 -16 -101 -16 -680 0 -645 0 -658 20 -678 19 -19 33 -20
208 -20 213 0 222 3 222 74 0 37 1 35 42 -44 93 -177 280 -380 465 -504 154
-102 474 -246 548 -246 38 0 222 68 340 125 265 130 490 321 618 527 l42 67
66 1 c290 1 448 153 449 431 0 117 -26 192 -92 265 l-51 55 25 27 c86 91 109
267 56 410 -38 103 -147 190 -257 208 l-41 7 0 203 c0 198 0 203 -22 218 -20
14 -144 16 -1133 16 -943 0 -1114 -2 -1131 -14z m2226 -231 l0 -185 -202 0
-203 1 32 27 c17 15 66 56 110 91 43 35 82 68 87 73 6 4 -407 8 -917 8 l-927
0 0 -105 0 -105 -85 0 -85 0 0 190 0 190 1095 0 1095 0 0 -185z m-1925 -260
c149 -39 232 -140 255 -309 22 -157 -19 -297 -111 -380 -71 -64 -143 -86 -301
-93 l-128 -6 0 -243 0 -244 -165 0 -165 0 0 645 0 645 278 0 c219 0 290 -3
337 -15z m1177 -52 c10 -134 8 -360 -2 -438 -7 -44 -24 -109 -40 -145 -37 -86
-49 -156 -57 -332 l-6 -147 -51 -13 c-69 -17 -334 -17 -403 1 l-53 13 0 108
c0 168 -18 280 -61 376 -37 84 -43 134 -43 364 1 124 4 238 8 253 l6 27 349 0
349 0 4 -67z m908 36 c65 -31 111 -75 142 -138 18 -38 22 -63 23 -146 0 -85
-4 -108 -24 -153 -26 -58 -88 -117 -132 -127 -36 -8 -48 -25 -17 -25 36 -1
100 -34 135 -71 66 -70 93 -181 73 -302 -21 -133 -89 -225 -198 -269 -54 -22
-71 -23 -374 -26 l-318 -3 0 646 0 646 318 -3 317 -3 55 -26z m-740 -171 c0
-81 -2 -90 -20 -95 -19 -5 -20 -14 -20 -187 l0 -182 -42 -40 c-24 -22 -54 -49
-67 -59 -24 -19 -24 -19 -17 -1 3 11 18 71 32 135 20 89 27 156 31 284 l6 169
41 38 c22 21 44 36 48 34 5 -3 8 -46 8 -96z m-844 -674 c4 -20 5 -124 2 -230
-4 -155 -2 -196 8 -205 8 -6 14 -26 14 -43 0 -27 -15 -44 -105 -125 -58 -52
-105 -98 -105 -102 0 -13 206 -146 282 -182 111 -52 204 -80 245 -74 19 3 53
15 76 25 264 124 347 173 479 286 l76 66 106 0 107 0 -12 -22 c-28 -52 -211
-219 -320 -291 -164 -109 -447 -237 -525 -237 -72 0 -375 139 -526 241 -124
84 -299 259 -372 371 -90 138 -97 160 -94 280 l3 103 44 0 43 0 28 -78 c16
-43 38 -93 50 -112 l21 -34 117 103 c209 185 337 295 344 296 4 0 10 -16 14
-36z m213 -336 c99 -11 280 -1 349 18 20 6 22 3 22 -39 0 -46 -1 -46 -42 -59
-59 -18 -387 -18 -445 0 -42 13 -43 13 -43 59 0 44 1 45 28 39 15 -3 74 -11
131 -18z"/>
<path d="M660 2170 l0 -160 53 0 c101 0 147 50 147 160 0 110 -46 160 -147
160 l-53 0 0 -160z"/>
<path d="M1922 2444 c-5 -9 -5 -42 1 -77 9 -62 3 -283 -9 -324 -8 -29 28 -50
49 -28 30 30 36 371 7 424 -13 25 -36 27 -48 5z"/>
<path d="M1883 1908 c-15 -18 -36 -127 -31 -163 2 -24 8 -30 28 -30 23 0 26 5
33 60 15 103 14 139 -4 143 -9 1 -21 -3 -26 -10z"/>
<path d="M2672 2198 l3 -133 63 0 c59 0 66 3 92 32 36 40 46 90 30 149 -18 64
-48 84 -127 84 l-64 0 3 -132z"/>
<path d="M2677 1833 c-4 -3 -7 -75 -7 -160 l0 -153 69 0 c54 0 74 4 95 21 40
31 56 71 56 139 0 109 -48 160 -151 160 -31 0 -59 -3 -62 -7z"/>
</g>
</svg>
