<?xml version="1.0" standalone="no"?>
<!DOCTYPE svg PUBLIC "-//W3C//DTD SVG 20010904//EN"
 "http://www.w3.org/TR/2001/REC-SVG-20010904/DTD/svg10.dtd">
<svg version="1.0" xmlns="http://www.w3.org/2000/svg"
 width="1258.000000pt" height="1258.000000pt" viewBox="0 0 1258.000000 1258.000000"
 preserveAspectRatio="xMidYMid meet">
<metadata>
Created by potrace 1.14, written by Peter Selinger 2001-2017
</metadata>
<g transform="translate(0.000000,1258.000000) scale(0.100000,-0.100000)"
fill="#000000" stroke="none">
<path d="M1600 11594 c-46 -20 -87 -60 -112 -108 -20 -38 -20 -57 -20 -858 0
-751 -2 -818 -17 -818 -9 -1 -302 -2 -652 -3 l-636 -2 -49 -30 c-30 -19 -60
-49 -79 -79 l-30 -49 0 -2756 1 -2756 21 -41 c28 -53 82 -100 130 -113 54 -15
1484 -15 1538 0 57 16 131 94 142 150 5 24 8 112 8 196 0 84 3 149 6 145 4 -4
19 -36 34 -72 58 -139 209 -424 318 -600 388 -629 888 -1167 1517 -1632 635
-470 1364 -836 2254 -1133 180 -61 192 -63 287 -63 97 0 104 1 321 74 191 65
493 176 593 219 484 209 765 350 1075 537 63 38 124 75 134 81 11 7 83 54 160
106 676 450 1243 1008 1653 1625 51 78 97 146 101 151 11 17 39 65 80 137 30
55 42 68 62 68 14 1 138 2 275 5 226 3 280 6 380 20 17 2 53 7 80 10 215 28
507 135 690 253 183 118 356 297 451 467 6 11 23 42 38 68 75 133 159 392 182
563 3 27 8 51 9 55 19 30 27 481 12 614 -11 91 -52 261 -87 355 -97 266 -250
475 -462 633 -38 27 -68 52 -68 54 0 2 27 29 60 60 119 109 215 252 290 429
43 99 93 279 105 373 4 30 9 63 12 75 10 41 12 392 2 470 -25 212 -72 373
-159 551 -149 301 -389 527 -690 647 -141 56 -309 102 -419 113 -31 4 -63 8
-72 11 -15 4 -17 76 -17 828 0 804 -1 824 -20 862 -28 55 -57 83 -109 105 -44
19 -136 19 -4666 19 -4108 -1 -4626 -2 -4657 -16z"/>
</g>
</svg>
